<svg width="375" height="812" viewBox="0 0 375 812" fill="none" xmlns="http://www.w3.org/2000/svg">
<rect width="375" height="812" fill="url(#paint0_linear_1_3)"/>
<g clip-path="url(#clip0_1_3)">
<path opacity="0.1" fill-rule="evenodd" clip-rule="evenodd" d="M-64.9315 155.036C-51.5068 141.655 -29.741 141.655 -16.3163 155.036L80.5 251.541L177.316 155.036C190.741 141.655 212.507 141.655 225.931 155.036C239.356 168.418 239.356 190.113 225.931 203.495L129.115 300L225.931 396.505C239.356 409.887 239.356 431.582 225.931 444.964C212.507 458.345 190.741 458.345 177.316 444.964L80.5 348.459L-16.3163 444.964C-29.741 458.345 -51.5068 458.345 -64.9315 444.964C-78.3562 431.582 -78.3562 409.887 -64.9315 396.505L31.8848 300L-64.9315 203.495C-78.3562 190.113 -78.3562 168.418 -64.9315 155.036Z" fill="black"/>
<path opacity="0.1" fill-rule="evenodd" clip-rule="evenodd" d="M301.5 129.511C253.457 129.511 214.511 168.457 214.511 216.5C214.511 264.543 253.457 303.489 301.5 303.489C349.543 303.489 388.489 264.543 388.489 216.5C388.489 168.457 349.543 129.511 301.5 129.511ZM146 216.5C146 130.62 215.62 61 301.5 61C387.38 61 457 130.62 457 216.5C457 302.38 387.38 372 301.5 372C215.62 372 146 302.38 146 216.5Z" fill="black"/>
</g>
<defs>
<linearGradient id="paint0_linear_1_3" x1="-1.44922e-06" y1="10" x2="375" y2="812" gradientUnits="userSpaceOnUse">
<stop stop-color="#00D2FF"/>
<stop offset="1" stop-color="#3A7BD5"/>
</linearGradient>
<clipPath id="clip0_1_3">
<rect width="375" height="516" rx="50" fill="white"/>
</clipPath>
</defs>
</svg>
